<svg width="423" height="207" viewBox="0 0 423 207" fill="none" xmlns="http://www.w3.org/2000/svg">
<path d="M27.1486 165.702L23.7894 182.999C23.6022 183.962 24.7712 184.591 25.4718 183.903L71.4257 138.764C71.8215 138.376 72.458 138.383 72.8443 138.782L116.65 183.948C117.325 184.644 118.495 184.07 118.358 183.11L115.945 166.219C115.913 165.996 115.808 165.791 115.645 165.636L114.473 164.52L72.8444 121.97C72.4576 121.575 71.8233 121.568 71.4288 121.956L27.4295 165.179C27.2851 165.321 27.1872 165.503 27.1486 165.702Z" fill="black" stroke="black" stroke-width="6"/>
<path d="M71.5259 75.2897L37.4649 135.317C36.8857 136.337 38.2346 137.349 39.0521 136.507L71.4208 103.165C71.8157 102.758 72.4693 102.76 72.8611 103.17L104.799 136.571C105.608 137.417 106.963 136.423 106.398 135.397L73.2714 75.3005C72.8939 74.6156 71.9118 74.6096 71.5259 75.2897Z" fill="black" stroke="black" stroke-width="6"/>
<path d="M19.09 141.383L4.40909 147.64C3.53386 148.013 2.68138 147.068 3.14198 146.236L71.5513 22.5945C71.9333 21.904 72.9274 21.9074 73.3046 22.6007L140.572 146.204C141.028 147.042 140.163 147.982 139.29 147.598L125.192 141.385C124.989 141.295 124.821 141.14 124.715 140.945L73.3085 45.7995C72.9315 45.1018 71.9313 45.0995 71.5511 45.7954L19.5755 140.942C19.4678 141.139 19.2967 141.294 19.09 141.383Z" fill="black" stroke="black" stroke-width="6"/>
<path d="M205.304 33.255V47.139H188.572V96H171.128V47.139H154.574V33.255H205.304ZM229.202 54.882C231.16 52.034 233.533 49.7793 236.322 48.118C239.111 46.4567 242.107 45.626 245.311 45.626V64.227H240.416C236.619 64.227 233.8 64.9687 231.961 66.452C230.122 67.9353 229.202 70.5163 229.202 74.195V96H211.758V46.071H229.202V54.882ZM248.717 70.991C248.717 65.829 249.636 61.3197 251.476 57.463C253.374 53.6063 255.926 50.6397 259.13 48.563C262.393 46.4863 266.012 45.448 269.988 45.448C273.429 45.448 276.396 46.1303 278.888 47.495C281.38 48.8597 283.308 50.699 284.673 53.013V46.071H302.117V96H284.673V89.058C283.308 91.372 281.35 93.2113 278.799 94.576C276.307 95.9407 273.37 96.623 269.988 96.623C266.012 96.623 262.393 95.5847 259.13 93.508C255.926 91.4313 253.374 88.4647 251.476 84.608C249.636 80.692 248.717 76.153 248.717 70.991ZM284.673 70.991C284.673 67.787 283.783 65.2653 282.003 63.426C280.282 61.5867 278.146 60.667 275.595 60.667C272.984 60.667 270.818 61.5867 269.098 63.426C267.377 65.206 266.517 67.7277 266.517 70.991C266.517 74.195 267.377 76.7463 269.098 78.645C270.818 80.4843 272.984 81.404 275.595 81.404C278.146 81.404 280.282 80.4843 282.003 78.645C283.783 76.8057 284.673 74.2543 284.673 70.991ZM309.209 70.991C309.209 65.829 310.128 61.3197 311.968 57.463C313.866 53.6063 316.447 50.6397 319.711 48.563C322.974 46.4863 326.593 45.448 330.569 45.448C333.773 45.448 336.621 46.1303 339.113 47.495C341.664 48.8003 343.652 50.61 345.076 52.924V30.14H362.609V96H345.076V89.058C343.711 91.372 341.783 93.2113 339.291 94.576C336.799 95.9407 333.862 96.623 330.48 96.623C326.504 96.623 322.885 95.5847 319.622 93.508C316.418 91.4313 313.866 88.4647 311.968 84.608C310.128 80.692 309.209 76.153 309.209 70.991ZM345.165 70.991C345.165 67.787 344.275 65.2653 342.495 63.426C340.774 61.5867 338.638 60.667 336.087 60.667C333.476 60.667 331.31 61.5867 329.59 63.426C327.869 65.206 327.009 67.7277 327.009 70.991C327.009 74.195 327.869 76.7463 329.59 78.645C331.31 80.4843 333.476 81.404 336.087 81.404C338.638 81.404 340.774 80.4843 342.495 78.645C344.275 76.8057 345.165 74.2543 345.165 70.991ZM420.253 70.457C420.253 71.8217 420.164 73.1863 419.986 74.551H386.967C387.145 77.2803 387.887 79.3273 389.192 80.692C390.557 81.9973 392.277 82.65 394.354 82.65C397.261 82.65 399.338 81.3447 400.584 78.734H419.185C418.414 82.1753 416.901 85.2607 414.646 87.99C412.451 90.66 409.662 92.7663 406.28 94.309C402.898 95.8517 399.16 96.623 395.066 96.623C390.141 96.623 385.751 95.5847 381.894 93.508C378.097 91.4313 375.1 88.4647 372.905 84.608C370.769 80.7513 369.701 76.2123 369.701 70.991C369.701 65.7697 370.769 61.2603 372.905 57.463C375.041 53.6063 378.008 50.6397 381.805 48.563C385.662 46.4863 390.082 45.448 395.066 45.448C399.991 45.448 404.352 46.4567 408.149 48.474C411.946 50.4913 414.913 53.3987 417.049 57.196C419.185 60.934 420.253 65.3543 420.253 70.457ZM402.453 66.096C402.453 63.96 401.741 62.2987 400.317 61.112C398.893 59.866 397.113 59.243 394.977 59.243C392.841 59.243 391.091 59.8363 389.726 61.023C388.361 62.1503 387.471 63.8413 387.056 66.096H402.453Z" fill="black"/>
<path d="M218.254 131.636C218.254 135.255 217.423 138.578 215.762 141.604C214.1 144.571 211.549 146.974 208.108 148.813C204.666 150.652 200.394 151.572 195.292 151.572H185.858V174H170.639V111.522H195.292C200.276 111.522 204.488 112.382 207.93 114.103C211.371 115.824 213.952 118.197 215.673 121.223C217.393 124.249 218.254 127.72 218.254 131.636ZM194.135 139.468C197.042 139.468 199.208 138.786 200.632 137.421C202.056 136.056 202.768 134.128 202.768 131.636C202.768 129.144 202.056 127.216 200.632 125.851C199.208 124.486 197.042 123.804 194.135 123.804H185.858V139.468H194.135Z" fill="black"/>
<path d="M275.216 124.338V174H259.997V167.236C258.454 169.431 256.348 171.211 253.678 172.576C251.067 173.881 248.16 174.534 244.956 174.534C241.158 174.534 237.806 173.703 234.899 172.042C231.991 170.321 229.737 167.859 228.135 164.655C226.533 161.451 225.732 157.683 225.732 153.352V124.338H240.862V151.305C240.862 154.628 241.722 157.209 243.443 159.048C245.163 160.887 247.477 161.807 250.385 161.807C253.351 161.807 255.695 160.887 257.416 159.048C259.136 157.209 259.997 154.628 259.997 151.305V124.338H275.216ZM301.366 108.14V174H286.147V108.14H301.366ZM359.209 148.368C359.209 149.792 359.12 151.275 358.942 152.818H324.499C324.737 155.903 325.716 158.277 327.436 159.938C329.216 161.54 331.382 162.341 333.933 162.341C337.731 162.341 340.371 160.739 341.854 157.535H358.052C357.222 160.798 355.709 163.735 353.513 166.346C351.377 168.957 348.678 171.004 345.414 172.487C342.151 173.97 338.502 174.712 334.467 174.712C329.602 174.712 325.271 173.674 321.473 171.597C317.676 169.52 314.709 166.554 312.573 162.697C310.437 158.84 309.369 154.331 309.369 149.169C309.369 144.007 310.408 139.498 312.484 135.641C314.62 131.784 317.587 128.818 321.384 126.741C325.182 124.664 329.543 123.626 334.467 123.626C339.273 123.626 343.545 124.635 347.283 126.652C351.021 128.669 353.929 131.547 356.005 135.285C358.141 139.023 359.209 143.384 359.209 148.368ZM343.634 144.363C343.634 141.752 342.744 139.676 340.964 138.133C339.184 136.59 336.959 135.819 334.289 135.819C331.738 135.819 329.572 136.561 327.792 138.044C326.072 139.527 325.004 141.634 324.588 144.363H343.634ZM387.441 174.712C383.11 174.712 379.253 173.97 375.871 172.487C372.489 171.004 369.819 168.986 367.861 166.435C365.903 163.824 364.806 160.917 364.568 157.713H379.609C379.787 159.434 380.588 160.828 382.012 161.896C383.436 162.964 385.187 163.498 387.263 163.498C389.162 163.498 390.616 163.142 391.624 162.43C392.692 161.659 393.226 160.68 393.226 159.493C393.226 158.069 392.485 157.031 391.001 156.378C389.518 155.666 387.115 154.895 383.792 154.064C380.232 153.233 377.266 152.373 374.892 151.483C372.519 150.534 370.472 149.08 368.751 147.122C367.031 145.105 366.17 142.405 366.17 139.023C366.17 136.175 366.942 133.594 368.484 131.28C370.086 128.907 372.4 127.038 375.426 125.673C378.512 124.308 382.161 123.626 386.373 123.626C392.603 123.626 397.498 125.169 401.058 128.254C404.678 131.339 406.754 135.433 407.288 140.536H393.226C392.989 138.815 392.218 137.451 390.912 136.442C389.666 135.433 388.005 134.929 385.928 134.929C384.148 134.929 382.784 135.285 381.834 135.997C380.885 136.65 380.41 137.569 380.41 138.756C380.41 140.18 381.152 141.248 382.635 141.96C384.178 142.672 386.551 143.384 389.755 144.096C393.434 145.045 396.43 145.995 398.744 146.944C401.058 147.834 403.076 149.317 404.796 151.394C406.576 153.411 407.496 156.141 407.555 159.582C407.555 162.489 406.725 165.1 405.063 167.414C403.461 169.669 401.118 171.449 398.032 172.754C395.006 174.059 391.476 174.712 387.441 174.712Z" fill="black"/>
</svg>
