<svg width="367" height="367" viewBox="0 0 367 367" fill="none" xmlns="http://www.w3.org/2000/svg">
<path d="M106.899 290.479L100.614 322.841C100.426 323.805 101.595 324.433 102.296 323.745L183.782 243.705C184.178 243.316 184.814 243.324 185.201 243.722L262.857 323.79C263.531 324.486 264.702 323.912 264.565 322.953L260.049 291.343C260.017 291.121 259.912 290.916 259.749 290.761L257.545 288.661L185.201 214.716C184.814 214.321 184.18 214.315 183.785 214.702L107.179 289.957C107.035 290.098 106.937 290.281 106.899 290.479Z" fill="white" stroke="white"/>
<path d="M184.074 133.555L121.858 243.201C121.279 244.222 122.628 245.233 123.445 244.391L183.777 182.245C184.172 181.838 184.826 181.84 185.217 182.25L244.698 244.455C245.507 245.301 246.862 244.307 246.297 243.281L185.82 133.566C185.442 132.881 184.46 132.875 184.074 133.555Z" fill="white" stroke="white"/>
<path d="M93.1808 248.636L65.6747 260.36C64.7995 260.733 63.947 259.788 64.4076 258.956L184.118 42.5945C184.5 41.904 185.494 41.9074 185.871 42.6007L303.598 258.924C304.054 259.762 303.19 260.702 302.317 260.318L275.814 248.638C275.61 248.549 275.443 248.394 275.337 248.198L185.875 82.6194C185.498 81.9217 184.498 81.9194 184.118 82.6154L93.6663 248.196C93.5586 248.393 93.3876 248.548 93.1808 248.636Z" fill="white" stroke="white"/>
</svg>
