<svg width="299" height="351" viewBox="0 0 299 351" fill="none" xmlns="http://www.w3.org/2000/svg">
<path d="M56.587 304.11L48.886 343.762C48.6988 344.726 49.8679 345.354 50.5684 344.666L149.251 247.735C149.647 247.347 150.283 247.354 150.67 247.752L244.708 344.712C245.383 345.407 246.553 344.833 246.416 343.874L240.883 305.142C240.851 304.919 240.745 304.714 240.583 304.559L237.879 301.983L150.67 212.845C150.283 212.449 149.649 212.443 149.254 212.831L56.8679 303.587C56.7236 303.729 56.6256 303.911 56.587 304.11Z" fill="black" stroke="black" stroke-width="10"/>
<path d="M149.636 114.996L73.7935 248.656C73.2143 249.676 74.5633 250.688 75.3808 249.846L149.246 173.759C149.641 173.352 150.294 173.355 150.686 173.764L223.497 249.91C224.306 250.756 225.66 249.761 225.095 248.736L151.381 115.006C151.004 114.322 150.022 114.316 149.636 114.996Z" fill="black" stroke="black" stroke-width="10"/>
<path d="M40.1305 253.785L6.41739 268.155C5.54216 268.528 4.68969 267.583 5.15029 266.751L149.688 5.51587C150.071 4.8253 151.065 4.82877 151.442 5.52199L293.59 266.719C294.046 267.557 293.181 268.497 292.308 268.113L259.802 253.788C259.599 253.698 259.431 253.543 259.325 253.348L151.446 53.6811C151.069 52.9834 150.068 52.9811 149.688 53.677L40.616 253.345C40.5083 253.542 40.3373 253.697 40.1305 253.785Z" fill="black" stroke="black" stroke-width="10"/>
</svg>
